<?xml version="1.0" encoding="utf-8"?>
<!-- Generator: Adobe Illustrator 20.0.0, SVG Export Plug-In . SVG Version: 6.00 Build 0)  -->
<svg version="1.1" id="Layer_1" xmlns="http://www.w3.org/2000/svg" xmlns:xlink="http://www.w3.org/1999/xlink" x="0px" y="0px"
	 viewBox="0 0 40 40" style="enable-background:new 0 0 40 40;" xml:space="preserve">
<style type="text/css">
	.st0{clip-path:url(#SVGID_2_);}
	.st1{fill:#E8E4D3;}
	.st2{fill:#BCAD84;}
	.st3{fill:#26313D;}
	.st4{fill:none;stroke:#BCAD84;stroke-miterlimit:10;}
	.st5{fill:none;stroke:#B28A39;stroke-miterlimit:10;}
	.st6{clip-path:url(#XMLID_3447_);}
	.st7{clip-path:url(#SVGID_6_);}
	.st8{clip-path:url(#SVGID_8_);}
	.st9{clip-path:url(#SVGID_10_);}
	.st10{fill:none;stroke:#E8E4D3;stroke-miterlimit:10;}
	.st11{clip-path:url(#XMLID_3449_);}
	.st12{clip-path:url(#XMLID_3520_);}
	.st13{fill:#381E25;}
	.st14{clip-path:url(#XMLID_3543_);}
	.st15{fill:none;stroke:#B28A39;stroke-miterlimit:10;stroke-dasharray:2,7,2,7;}
	.st16{clip-path:url(#XMLID_3548_);}
	.st17{clip-path:url(#XMLID_3630_);}
	.st18{clip-path:url(#XMLID_4104_);}
	.st19{opacity:0.73;fill:#DBD4B6;stroke:#4A3E3A;stroke-width:4.607;stroke-miterlimit:10;}
	.st20{fill:#DBD4B6;stroke:#4A3E3A;stroke-width:1.0641;stroke-miterlimit:10;}
	.st21{fill:#4A3E3A;}
	.st22{fill:none;stroke:#4A3E3A;stroke-width:1.0641;stroke-miterlimit:10;}
	.st23{fill:#DBD4B6;stroke:#4A3E3A;stroke-miterlimit:10;}
	.st24{clip-path:url(#XMLID_4297_);}
	.st25{clip-path:url(#XMLID_4299_);}
	.st26{clip-path:url(#XMLID_4300_);}
	.st27{clip-path:url(#XMLID_4301_);}
	.st28{clip-path:url(#XMLID_4302_);}
	.st29{fill:none;stroke:#E8E4D3;stroke-width:0.25;stroke-miterlimit:10;}
	.st30{fill:none;stroke:#BCAD84;stroke-width:2;stroke-miterlimit:10;}
	.st31{clip-path:url(#XMLID_4304_);}
	.st32{clip-path:url(#XMLID_4306_);}
	.st33{fill:none;stroke:#000000;stroke-miterlimit:10;}
	.st34{fill:#F5841E;}
	.st35{fill:none;stroke:#000000;stroke-width:3;stroke-miterlimit:10;}
	.st36{fill:#B68C38;}
	.st37{fill:none;stroke:#B28A39;stroke-miterlimit:10;stroke-dasharray:2,8,2,8;}
	.st38{fill:none;stroke:#26313D;stroke-miterlimit:10;}
	.st39{opacity:0.49;}
	.st40{fill-rule:evenodd;clip-rule:evenodd;fill:#E8E4D3;}
	.st41{fill:#B28A39;}
	.st42{clip-path:url(#XMLID_4308_);}
	.st43{clip-path:url(#XMLID_4310_);}
	.st44{fill-rule:evenodd;clip-rule:evenodd;fill:#26313D;stroke:#26313D;stroke-width:0.2064;stroke-miterlimit:10;}
	.st45{fill:#26313D;stroke:#26313D;stroke-width:0.2064;stroke-miterlimit:10;}
	.st46{fill-rule:evenodd;clip-rule:evenodd;fill:#26313D;}
	.st47{fill:none;stroke:#000000;stroke-width:0.3562;}
	.st48{fill:none;stroke:#000000;stroke-width:0.4;}
	.st49{clip-path:url(#XMLID_4312_);}
	.st50{clip-path:url(#XMLID_4313_);}
	.st51{clip-path:url(#XMLID_4314_);}
	.st52{clip-path:url(#XMLID_4315_);}
	.st53{clip-path:url(#XMLID_4316_);}
	.st54{clip-path:url(#XMLID_4317_);}
	.st55{clip-path:url(#XMLID_4318_);}
	.st56{clip-path:url(#XMLID_4319_);}
	.st57{clip-path:url(#XMLID_4320_);}
	.st58{clip-path:url(#XMLID_4321_);}
	.st59{clip-path:url(#XMLID_4322_);}
	.st60{fill:url(#XMLID_4323_);}
	.st61{fill:url(#XMLID_4324_);}
	.st62{fill:url(#XMLID_4325_);}
	.st63{clip-path:url(#XMLID_4327_);}
	.st64{clip-path:url(#XMLID_4328_);}
	.st65{clip-path:url(#XMLID_4330_);}
	.st66{clip-path:url(#XMLID_4331_);}
	.st67{clip-path:url(#XMLID_4332_);}
	.st68{clip-path:url(#XMLID_4333_);}
	.st69{clip-path:url(#XMLID_4334_);}
	.st70{clip-path:url(#XMLID_4335_);}
	.st71{fill:#CBAE85;stroke:#231F20;}
	.st72{fill:#242D43;stroke:#231F20;}
	.st73{fill:#3E3C41;stroke:#231F20;stroke-miterlimit:10;}
	.st74{clip-path:url(#XMLID_4336_);}
	.st75{clip-path:url(#XMLID_4338_);}
	.st76{clip-path:url(#XMLID_4339_);}
	.st77{clip-path:url(#XMLID_4340_);}
	.st78{clip-path:url(#XMLID_4341_);}
	.st79{clip-path:url(#XMLID_4342_);}
	.st80{clip-path:url(#XMLID_4343_);}
	.st81{clip-path:url(#XMLID_4344_);}
	.st82{clip-path:url(#XMLID_4345_);}
	.st83{clip-path:url(#XMLID_4346_);}
	.st84{clip-path:url(#XMLID_4347_);}
	.st85{fill:#EBE6C5;}
	.st86{fill:#998775;}
	.st87{fill:#1E1728;}
	.st88{fill:#FFFDDC;}
	.st89{clip-path:url(#XMLID_4348_);}
	.st90{clip-path:url(#XMLID_4349_);}
	.st91{clip-path:url(#XMLID_4350_);}
	.st92{clip-path:url(#XMLID_4352_);}
	.st93{clip-path:url(#XMLID_4354_);}
	.st94{fill:none;stroke:#B28A39;stroke-width:2;stroke-miterlimit:10;}
	.st95{fill:url(#XMLID_4355_);}
	.st96{fill:url(#XMLID_4356_);}
	.st97{fill:url(#XMLID_4357_);}
	.st98{fill:#DFD7B3;}
	.st99{clip-path:url(#SVGID_26_);}
	.st100{clip-path:url(#SVGID_28_);}
	.st101{clip-path:url(#SVGID_30_);}
	.st102{fill:none;stroke:#BCAD84;stroke-linecap:round;stroke-miterlimit:10;}
	.st103{fill:none;stroke:#BCAD84;stroke-width:1.0907;stroke-miterlimit:10;}
	.st104{clip-path:url(#SVGID_32_);}
	.st105{fill:none;stroke:#BCAD84;stroke-width:1.1114;stroke-miterlimit:10;}
	.st106{clip-path:url(#SVGID_34_);}
	.st107{clip-path:url(#SVGID_36_);}
	.st108{clip-path:url(#XMLID_4358_);}
	.st109{clip-path:url(#SVGID_38_);fill:#E8E4D3;}
	.st110{clip-path:url(#SVGID_38_);}
	.st111{clip-path:url(#SVGID_38_);fill:none;stroke:#BCAD84;stroke-miterlimit:10;}
	.st112{clip-path:url(#SVGID_40_);}
	.st113{clip-path:url(#SVGID_42_);}
	.st114{clip-path:url(#XMLID_4360_);}
	.st115{clip-path:url(#XMLID_4362_);}
	.st116{fill:url(#XMLID_4363_);}
	.st117{fill:url(#XMLID_4364_);}
	.st118{fill:url(#XMLID_4365_);}
	.st119{clip-path:url(#SVGID_44_);}
	.st120{clip-path:url(#XMLID_4367_);}
	.st121{clip-path:url(#SVGID_48_);}
	.st122{clip-path:url(#XMLID_4368_);}
	.st123{clip-path:url(#SVGID_52_);}
	.st124{clip-path:url(#XMLID_4369_);}
	.st125{clip-path:url(#XMLID_4370_);}
	.st126{clip-path:url(#XMLID_4371_);}
	.st127{clip-path:url(#XMLID_4372_);}
	.st128{clip-path:url(#XMLID_4373_);}
	.st129{fill:#4E5E70;}
	.st130{clip-path:url(#XMLID_4375_);}
	.st131{clip-path:url(#XMLID_4376_);}
	.st132{clip-path:url(#XMLID_4377_);}
	.st133{clip-path:url(#XMLID_4378_);}
	.st134{clip-path:url(#XMLID_4379_);}
	.st135{clip-path:url(#XMLID_4380_);}
	.st136{fill:none;stroke:#E8E4D3;stroke-width:1.097;stroke-miterlimit:10;}
	.st137{clip-path:url(#XMLID_4381_);}
	.st138{clip-path:url(#XMLID_4383_);}
	.st139{clip-path:url(#XMLID_4384_);}
	.st140{clip-path:url(#XMLID_4385_);}
	.st141{clip-path:url(#XMLID_4386_);}
	.st142{clip-path:url(#XMLID_4387_);}
	.st143{clip-path:url(#XMLID_4388_);}
	.st144{fill:none;stroke:#381E25;stroke-miterlimit:10;}
	.st145{fill:none;stroke:#BCAD84;stroke-width:0.903;stroke-miterlimit:10;}
	.st146{fill:#FFFFFF;}
	.st147{fill:url(#XMLID_4389_);}
	.st148{fill:url(#XMLID_4390_);}
	.st149{fill:url(#XMLID_4391_);}
</style>
<g id="XMLID_4228_">
	<path id="path3564_26_" class="st103" d="M34.5,18.8l-0.4-1.7c0,0-0.5-2.6-4.9-7.4L28.5,9c-3.5-3.8-6.9-5.3-6.9-5.3l-1.8-0.6
		c-2.5-0.7-3.3,1.6-3.3,1.6s-0.2,0.5-0.4,1C16,6.3,16.3,6.9,17,7.2l3.6,1.3c0.7,0.2,1.3,0.1,1.4-0.3c0.1-0.4,0.3-0.8,0.4-0.9
		c0.1-0.1,0.8,0.2,1.4,0.6c0.9,0.5,2.3,1.3,3.3,2.4l0.8,0.9c0,0,2.4,2.7,2.5,4.7c0,0,0,0.1,0,0.1c0,0,0,0.1-0.1,0.1c0,0-0.1,0-0.1,0
		c-0.2,0.1-0.5,0.2-0.7,0.2c-0.4,0.1-0.5,0.7-0.4,1.4l1,3.5c0.2,0.7,0.8,1.1,1.4,0.9l1.1-0.3C32.6,21.9,34.8,21.2,34.5,18.8"/>
	<path id="XMLID_4234_" class="st2" d="M20.2,22.6c-3,0-5.4,2.4-5.4,5.4c0,3,2.4,5.4,5.4,5.4c3,0,5.4-2.4,5.4-5.4
		C25.6,25.1,23.2,22.6,20.2,22.6z M20.5,24c0.1-0.3,0.4-0.5,0.7-0.5c0.1,0,0.1,0,0.2,0c0.4,0.1,0.6,0.5,0.5,0.9
		c-0.1,0.3-0.4,0.5-0.7,0.5c-0.1,0-0.1,0-0.2,0C20.7,24.7,20.4,24.4,20.5,24z M18.9,23.5c0.1,0,0.1,0,0.2,0c0.3,0,0.6,0.2,0.7,0.5
		c0,0.2,0,0.4-0.1,0.5c-0.1,0.2-0.2,0.3-0.4,0.3c-0.1,0-0.1,0-0.2,0c-0.3,0-0.6-0.2-0.7-0.5C18.4,24,18.6,23.6,18.9,23.5z
		 M16.8,24.7c0.1-0.1,0.3-0.2,0.5-0.2c0.2,0,0.4,0.1,0.5,0.2c0.1,0.1,0.2,0.3,0.2,0.5c0,0.2-0.1,0.4-0.2,0.5c-0.3,0.3-0.7,0.3-1,0
		c-0.1-0.1-0.2-0.3-0.2-0.5C16.6,25,16.7,24.8,16.8,24.7z M15.6,26.8c0.1-0.3,0.4-0.5,0.7-0.5c0.1,0,0.1,0,0.2,0
		c0.4,0.1,0.6,0.5,0.5,0.9c-0.1,0.3-0.4,0.5-0.7,0.5c-0.1,0-0.1,0-0.2,0c-0.2,0-0.3-0.2-0.4-0.3C15.6,27.2,15.5,27,15.6,26.8z
		 M16.3,29.8c-0.3,0-0.6-0.2-0.7-0.5c-0.1-0.4,0.1-0.8,0.5-0.9c0.1,0,0.1,0,0.2,0c0.3,0,0.6,0.2,0.7,0.5c0,0.2,0,0.4-0.1,0.5
		c-0.1,0.2-0.2,0.3-0.4,0.3C16.4,29.8,16.3,29.8,16.3,29.8z M17.8,31.4c-0.3,0.3-0.7,0.3-1,0c-0.3-0.3-0.3-0.7,0-1
		c0.1-0.1,0.3-0.2,0.5-0.2c0.2,0,0.4,0.1,0.5,0.2C18.1,30.7,18.1,31.1,17.8,31.4z M19.8,32.2c-0.1,0.4-0.5,0.6-0.9,0.5
		c-0.2,0-0.3-0.2-0.4-0.3c-0.1-0.2-0.1-0.3-0.1-0.5c0.1-0.3,0.4-0.5,0.7-0.5c0.1,0,0.1,0,0.2,0c0.2,0,0.3,0.2,0.4,0.3
		C19.8,31.8,19.8,32,19.8,32.2z M20.2,30.8c-1.5,0-2.7-1.2-2.7-2.7c0-1.5,1.2-2.7,2.7-2.7c1.5,0,2.7,1.2,2.7,2.7
		C22.9,29.6,21.7,30.8,20.2,30.8z M22.5,25.7c-0.3-0.3-0.3-0.7,0-1c0.1-0.1,0.3-0.2,0.5-0.2c0.2,0,0.4,0.1,0.5,0.2
		c0.1,0.1,0.2,0.3,0.2,0.5c0,0.2-0.1,0.4-0.2,0.5c-0.1,0.1-0.3,0.2-0.5,0.2C22.8,25.9,22.7,25.8,22.5,25.7z M23.5,26.7
		c0.1-0.2,0.2-0.3,0.4-0.3c0.1,0,0.1,0,0.2,0c0.3,0,0.6,0.2,0.7,0.5c0,0.2,0,0.4-0.1,0.5c-0.1,0.2-0.2,0.3-0.4,0.3
		c-0.1,0-0.1,0-0.2,0c-0.3,0-0.6-0.2-0.7-0.5C23.4,27,23.4,26.8,23.5,26.7z M24.7,29.3c-0.1,0.3-0.4,0.5-0.7,0.5c-0.1,0-0.1,0-0.2,0
		c-0.2,0-0.3-0.2-0.4-0.3c-0.1-0.2-0.1-0.3-0.1-0.5c0.1-0.3,0.4-0.5,0.7-0.5c0.1,0,0.1,0,0.2,0C24.6,28.5,24.8,28.9,24.7,29.3z"/>
	<path id="XMLID_4229_" class="st103" d="M25.6,20.8h-1.3c-0.3,0-0.6-0.2-0.6-0.6v-1.1c0-0.3-0.2-0.6-0.6-0.6h-1.1
		c-0.3,0-0.6,0.2-0.6,0.6v1.1c0,0.3-0.2,0.6-0.6,0.6h-2.2c-0.3,0-0.6-0.2-0.6-0.6v-1.1c0-0.3-0.2-0.6-0.6-0.6h-1.1
		c-0.3,0-0.6,0.2-0.6,0.6v1.1c0,0.3-0.2,0.6-0.6,0.6h-1.3c-0.2,0-0.4,0.1-0.5,0.4L9.6,31.9c-0.1,0.1,0,0.3,0,0.5l2.4,4.5
		c0.1,0.2,0.3,0.3,0.5,0.3h5.7h3.3h5.7c0.2,0,0.4-0.1,0.5-0.3l2.4-4.5c0.1-0.1,0.1-0.3,0-0.5l-4.1-10.7C26,20.9,25.8,20.8,25.6,20.8
		z"/>
</g>
</svg>
